Coordinates
version=1
nRows=16
nColumns=22
inDegrees=yes

Units are S.I. units (second, meters, Newtons, ...)
If the header above contains a line with 'inDegrees', this indicates whether rotational values are in degrees (yes) or radians (no).

endheader
time	pelvis_tilt	pelvis_list	pelvis_rotation	pelvis_tx	pelvis_ty	pelvis_tz	hip_flexion_r	hip_adduction_r	hip_rotation_r	knee_angle_r	ankle_angle_r	subtalar_angle_r	hip_flexion_l	hip_adduction_l	hip_rotation_l	knee_angle_l	ankle_angle_l	subtalar_angle_l	lumbar_extension	lumbar_bending	lumbar_rotation
      1.33000000	     -0.99308529	     -2.54567341	     -5.45811683	     -1.08928871	      0.93487182	     -0.07589497	     -0.87480180	      2.40058421	      1.71724265	     -5.24661414	      5.04529937	      1.67778645	      0.50298867	     -6.20260759	    -11.42258889	    -10.46691214	      8.30113110	      4.59410343	     -3.28497089	     -0.00395404	     -1.07335666
      1.34000000	     -1.11776914	     -2.53586860	     -5.32439858	     -1.08876223	      0.93468762	     -0.07625482	     -0.79878636	      2.38402071	      1.62875628	     -5.22239420	      5.09211076	      1.74260542	      0.83877126	     -6.20249594	    -11.36747324	    -10.86457187	      8.47728731	      4.17453695	     -3.17062280	     -0.02948748	     -1.12768024
      1.35000000	     -1.25030211	     -2.53340247	     -5.18442479	     -1.08821093	      0.93448768	     -0.07668418	     -0.72525587	      2.37019469	      1.53422616	     -5.18213319	      5.13525148	      1.81072130	      1.20867755	     -6.21170976	    -11.32453279	    -11.31830458	      8.70016426	      3.72548570	     -3.04959679	     -0.04149340	     -1.17288202
      1.36000000	     -1.39839308	     -2.52528875	     -5.03819073	     -1.08767880	      0.93426226	     -0.07717994	     -0.62772208	      2.34743723	      1.46412222	     -5.15569908	      5.16536264	      1.88543017	      1.62231961	     -6.21641331	    -11.29679401	    -11.82017237	      8.93936898	      3.21796516	     -2.91915929	     -0.05878899	     -1.21987610
      1.37000000	     -1.51055240	     -2.55481992	     -4.88584067	     -1.08701349	      0.93405705	     -0.07773920	     -0.61609323	      2.35637539	      1.35090357	     -5.05802951	      5.21076156	      1.94736789	      1.99626084	     -6.26251647	    -11.33191934	    -12.34980707	      9.28996826	      2.80981188	     -2.81955560	     -0.03184418	     -1.24598246
      1.38000000	     -1.64482093	     -2.58304238	     -4.73082852	     -1.08636165	      0.93380643	     -0.07838062	     -0.57582623	      2.35990925	      1.25744829	     -4.96819089	      5.24000147	      2.01654349	      2.41690544	     -6.31204954	    -11.40182086	    -12.92420561	      9.66269716	      2.33765232	     -2.70229740	     -0.00139400	     -1.26730681
      1.39000000	     -1.79621801	     -2.60109723	     -4.58021652	     -1.08571543	      0.93352131	     -0.07909366	     -0.50953208	      2.34839658	      1.18570754	     -4.89179798	      5.25154710	      2.09261051	      2.87031784	     -6.35443737	    -11.50787147	    -13.52896573	     10.03417355	      1.79761472	     -2.56987602	      0.01942423	     -1.28228630
      1.40000000	     -1.91795193	     -2.64670087	     -4.43991622	     -1.08495123	      0.93324299	     -0.07986615	     -0.50860958	      2.35746143	      1.09423577	     -4.76526066	      5.27914949	      2.16047663	      3.27354456	     -6.43103549	    -11.70207355	    -14.12999071	     10.47130491	      1.32791265	     -2.46239811	      0.07526908	     -1.27401792
      1.41000000	     -2.01430153	     -2.71308160	     -4.30974068	     -1.08415072	      0.93297222	     -0.08069459	     -0.53933475	      2.38232130	      1.01548938	     -4.63784682	      5.30492037	      2.22327355	      3.64230882	     -6.53594855	    -11.96477426	    -14.73500103	     10.94255662	      0.89859049	     -2.38754449	      0.15291452	     -1.24582066
      1.42000000	     -2.09135973	     -2.79372523	     -4.19507683	     -1.08330566	      0.93270022	     -0.08158075	     -0.59530729	      2.41578159	      0.95350072	     -4.50680761	      5.32087309	      2.28262937	      3.97797458	     -6.66267879	    -12.29362114	    -15.33827583	     11.43000278	      0.49495846	     -2.33636354	      0.24865682	     -1.19793068
      1.43000000	     -2.11529128	     -2.89627433	     -4.10064119	     -1.08237785	      0.93246879	     -0.08251241	     -0.71144203	      2.46363059	      0.87475737	     -4.38177606	      5.38992073	      2.33036451	      4.21893986	     -6.81603981	    -12.69199744	    -15.89606780	     11.93477638	      0.21889635	     -2.34494531	      0.36778340	     -1.12102570
      1.44000000	     -2.16183017	     -3.00268786	     -4.02449509	     -1.08141817	      0.93219032	     -0.08350633	     -0.80543887	      2.51187726	      0.82963466	     -4.25247760	      5.41747956	      2.38588741	      4.47186017	     -6.98041297	    -13.13741261	    -16.44804184	     12.42847775	     -0.13588344	     -2.32550634	      0.49653234	     -1.03570619
      1.45000000	     -2.19496446	     -3.10721384	     -3.95794783	     -1.08040280	      0.93191153	     -0.08457246	     -0.90956954	      2.55143480	      0.78705433	     -4.13748494	      5.46247917	      2.44142662	      4.67991467	     -7.14130894	    -13.60764523	    -16.95472154	     12.90013872	     -0.47453388	     -2.31996715	      0.62275967	     -0.94024905
      1.46000000	     -2.21786827	     -3.21415970	     -3.90713051	     -1.07932551	      0.93163585	     -0.08570848	     -1.02021588	      2.58653722	      0.75587868	     -4.03657988	      5.51211226	      2.49780590	      4.84422986	     -7.29982579	    -14.08309510	    -17.41601053	     13.35093284	     -0.80328113	     -2.32280724	      0.75389650	     -0.83819696
      1.47000000	     -2.22679874	     -3.31609716	     -3.86372659	     -1.07818320	      0.93136860	     -0.08693467	     -1.13865348	      2.60871244	      0.72483940	     -3.95567087	      5.57614203	      2.55255213	      4.96100812	     -7.44178524	    -14.53995081	    -17.82668689	     13.77178959	     -1.09370251	     -2.33880852	      0.88185496	     -0.74002266
      1.48000000	     -2.22909083	     -3.41533506	     -3.82712725	     -1.07698761	      0.93110702	     -0.08825487	     -1.25418746	      2.62056320	      0.69889782	     -3.89814764	      5.64797825	      2.60912227	      5.03936916	     -7.56512121	    -14.95167064	    -18.18458104	     14.16079545	     -1.36513603	     -2.36249526	      1.01008064	     -0.64441208
